<?xml version="1.0" encoding="UTF-8"?>
<svg version="1.1" xmlns="http://www.w3.org/2000/svg" viewBox="100 100 600 600">
<path d="M0 0 C260.04 0 520.08 0 788 0 C788 260.04 788 520.08 788 788 C527.96 788 267.92 788 0 788 C0 527.96 0 267.92 0 0 Z " fill="#F8F8F8" transform="translate(0,0)"/>
<path d="M0 0 C1.41336501 -0.00763021 2.82672589 -0.01605918 4.24008179 -0.02522278 C8.06460505 -0.04708865 11.8890484 -0.05595587 15.7136271 -0.06104922 C18.10729867 -0.06470192 20.5009496 -0.07094666 22.89461327 -0.07805061 C31.25738818 -0.10251679 39.6201013 -0.11559105 47.98291016 -0.11914062 C55.75889079 -0.12277459 63.53447644 -0.15266706 71.31033641 -0.19454521 C78.00273646 -0.22931532 84.69500599 -0.24469022 91.3874957 -0.24538666 C95.37740084 -0.24617713 99.36690304 -0.2548094 103.35671425 -0.28338432 C107.11211534 -0.30968127 110.8667827 -0.31170646 114.62223434 -0.29572868 C116.64324838 -0.29306814 118.66424889 -0.31501775 120.68513489 -0.33792114 C130.71643673 -0.2578824 138.68338677 2.24571152 146.0534668 9.30639648 C147.99462891 11.83666992 147.99462891 11.83666992 149.83081055 14.66577148 C150.50950195 15.69959961 151.18819336 16.73342773 151.88745117 17.79858398 C152.58161133 18.87366211 153.27577148 19.94874023 153.9909668 21.05639648 C156.65947752 25.15259781 159.34118503 29.23902646 162.0534668 33.30639648 C162.57956543 34.10110352 163.10566406 34.89581055 163.64770508 35.71459961 C164.13352051 36.41004883 164.61933594 37.10549805 165.11987305 37.82202148 C165.52278564 38.40757812 165.92569824 38.99313477 166.34082031 39.59643555 C169.9691873 43.21911301 173.67722463 45.11805055 178.68237782 45.80303192 C179.98294463 45.80152382 181.28351145 45.80001572 182.62348938 45.79846191 C183.35337057 45.8031409 184.08325176 45.80781989 184.83525056 45.81264067 C187.26423185 45.82351371 189.69216257 45.80612905 192.12109375 45.78881836 C193.86942855 45.79100578 195.61776189 45.79500488 197.36608887 45.80067444 C201.12349089 45.80922493 204.88060694 45.80547596 208.63799477 45.79225159 C214.58527049 45.77187643 220.53225943 45.78190951 226.47953796 45.79650879 C240.18082948 45.82551804 253.88203623 45.81482424 267.58334351 45.80381012 C280.13574602 45.79412582 292.68799828 45.79290668 305.24037522 45.82369089 C311.14613266 45.83703208 317.0514578 45.83115016 322.9571892 45.81032562 C326.63971416 45.80131019 330.3220742 45.80884038 334.00458527 45.82073784 C335.70486961 45.8228602 337.40517892 45.81819699 339.10542107 45.80603218 C350.60237243 45.72844973 360.71073857 46.35680779 369.5222168 54.60717773 C376.14938983 61.96131108 378.38686235 69.88848355 378.2487793 79.64624023 C378.24453445 80.79667564 378.24453445 80.79667564 378.24020386 81.97035217 C378.22910154 84.39503269 378.20401646 86.81932958 378.1784668 89.24389648 C378.1684241 90.89818799 378.15930051 92.55248534 378.15112305 94.20678711 C378.12919496 98.24013571 378.09473522 102.27320129 378.0534668 106.30639648 C377.51112074 106.02353932 376.96877468 105.74068215 376.40999389 105.44925356 C368.55122479 101.79474461 361.06124979 101.74359528 352.57891846 101.79846191 C351.01950841 101.79384718 349.46010272 101.78749043 347.90070605 101.77955294 C343.63637031 101.76291572 339.37239446 101.77108021 335.10805774 101.78349781 C330.50137107 101.79256873 325.89474517 101.77856867 321.28807068 101.76757812 C312.27294276 101.74981179 303.25794821 101.75362399 294.24281511 101.76522869 C286.91710193 101.77426791 279.59142608 101.7754849 272.26570892 101.77113342 C270.700873 101.77021402 270.700873 101.77021402 269.10442422 101.76927605 C266.98508494 101.76799714 264.86574567 101.76670029 262.74640641 101.76538569 C242.88498881 101.753986 223.02364512 101.76708519 203.16223964 101.78858715 C186.11764428 101.80646809 169.07315786 101.80334464 152.02856445 101.78491211 C132.23126423 101.76351273 112.43402868 101.75507351 92.63671851 101.76736116 C90.52646622 101.76863536 88.41621392 101.76989284 86.30596161 101.77113342 C84.74854848 101.77205908 84.74854848 101.77205908 83.15967245 101.77300343 C75.84011832 101.77645834 68.52060521 101.77062516 61.20105743 101.76121521 C52.28509654 101.75000469 43.36927653 101.75301578 34.4533318 101.77433819 C29.90369145 101.78485973 25.35428613 101.7889515 20.80464745 101.77574158 C16.64111614 101.76383532 12.47803808 101.77035076 8.31454799 101.79165179 C6.80735225 101.79612524 5.30011833 101.79383488 3.79294708 101.78414863 C1.74584755 101.772 -0.30135906 101.78684339 -2.34843063 101.80303192 C-4.05473683 101.80400604 -4.05473683 101.80400604 -5.79551387 101.80499983 C-10.84386344 102.60830356 -13.93880125 105.16248454 -17.2590332 108.93139648 C-20.24359103 113.13188527 -20.09733134 116.43870748 -20.10043335 121.45202637 C-20.1048156 122.30422555 -20.10919786 123.15642474 -20.11371291 124.03444815 C-20.12713049 126.90700081 -20.13328649 129.77952277 -20.1394043 132.65209961 C-20.14730315 134.70511006 -20.15557197 136.75811912 -20.16418457 138.81112671 C-20.1904374 145.56995309 -20.20571896 152.32878575 -20.2199707 159.08764648 C-20.22532971 161.41342676 -20.23070721 163.73920699 -20.23610306 166.06498718 C-20.25773969 175.74143181 -20.27647529 185.41787475 -20.28772545 195.09433746 C-20.30395525 208.9634125 -20.33710081 222.83220692 -20.3941263 236.70117617 C-20.43284635 246.45076135 -20.45236081 256.20027157 -20.45764601 265.94993162 C-20.46129761 271.7731094 -20.47329835 277.59598812 -20.50574875 283.41908264 C-20.53586407 288.90206098 -20.54212859 294.38455986 -20.53036499 299.8676033 C-20.53014452 301.8758943 -20.53842713 303.88420776 -20.55601883 305.89242172 C-20.65480147 317.82247079 -20.33080506 326.38376124 -12.7590332 336.11889648 C-1.90924924 344.55761734 8.32786214 344.01892421 21.55175781 343.94995117 C23.73878236 343.95677244 25.92580098 343.96579751 28.11280823 343.97685242 C34.02956864 344.00068255 39.94595125 343.99415801 45.86273313 343.9823637 C52.05493426 343.97550516 58.24702862 343.99763107 64.43919373 344.01690674 C76.15684091 344.04917515 87.87436492 344.05702315 99.59205145 344.05533242 C116.82050513 344.05352135 134.04889098 344.08734618 151.27730465 344.12306595 C153.81458473 344.12829033 156.35186481 344.13351267 158.8891449 344.13873291 C160.12717973 344.14133786 161.36521457 344.14394282 162.64076561 344.14662671 C170.01991642 344.16130083 177.39902467 344.16821003 184.77818978 344.16838121 C189.35285427 344.16902566 193.92751088 344.17336367 198.50217247 344.17835426 C200.63194871 344.17972157 202.76172686 344.17933151 204.89150238 344.17710686 C207.78519988 344.17422296 210.67883113 344.17729155 213.57252502 344.18182373 C214.42658151 344.17939124 215.28063799 344.17695875 216.16057497 344.17445254 C221.93948724 344.19241693 221.93948724 344.19241693 223.0534668 345.30639648 C223.45603242 350.05667084 223.51997059 352.4067106 221.3034668 356.68139648 C219.03564199 359.32719209 218.24609721 360.17571703 215.0534668 361.30639648 C212.09206716 361.50335976 209.22467801 361.5890651 206.26318359 361.58055115 C205.36576761 361.58578783 204.46835163 361.5910245 203.54374123 361.59641987 C200.53001118 361.61144763 197.51645052 361.61212565 194.50268555 361.61279297 C192.34425062 361.62041286 190.1858184 361.62884006 188.02738953 361.63801575 C182.15716795 361.65999102 176.28699848 361.66876433 170.41674042 361.67384219 C166.74748618 361.67748376 163.07824561 361.68372295 159.40899658 361.69084358 C146.60249227 361.71535362 133.79602852 361.72839225 120.98950195 361.73193359 C109.06303528 361.73556471 97.13682661 361.76542589 85.21043873 361.80733818 C74.96566037 361.84207505 64.72096732 361.85748267 54.47613049 361.85817963 C48.36006765 361.85897161 42.24426724 361.86767379 36.12826538 361.89617729 C30.36946301 361.92241404 24.61113948 361.92453146 18.85230446 361.90852165 C16.74488084 361.90671134 14.63742935 361.91335986 12.53006554 361.92934036 C-3.51640955 362.04354899 -15.85806931 360.07827678 -27.8137207 348.49780273 C-37.55641736 338.10698677 -40.24978596 326.89673078 -40.22068787 313.06681824 C-40.22592454 311.83466011 -40.23116122 310.60250198 -40.23655659 309.33300573 C-40.24894048 305.92478592 -40.25240075 302.51677271 -40.25195968 299.10854471 C-40.25361187 295.4281231 -40.26668573 291.74773872 -40.27815247 288.06733704 C-40.30096889 280.02601476 -40.30891919 271.98471893 -40.31397891 263.94336867 C-40.31723929 258.91980011 -40.32376376 253.89623918 -40.3309803 248.87267494 C-40.35054044 234.95574154 -40.36694855 221.03881522 -40.36985683 207.12186718 C-40.3700444 206.23191005 -40.37023197 205.34195292 -40.37042523 204.42502739 C-40.37079147 202.62099 -40.37115517 200.81695261 -40.37151634 199.01291522 C-40.37169915 198.11742761 -40.37188196 197.22194 -40.37207031 196.29931641 C-40.37225086 195.40273236 -40.37243141 194.50614831 -40.37261743 193.58239505 C-40.37615951 179.05277774 -40.40318662 164.52330859 -40.4405682 149.99374267 C-40.47866607 135.06600102 -40.49801441 120.13833288 -40.49831635 105.21054155 C-40.49890052 96.83325653 -40.50736681 88.45614836 -40.53631401 80.07890892 C-40.56084751 72.94638273 -40.56809745 65.81409793 -40.55306648 58.68154093 C-40.545906 55.0447232 -40.5467171 51.40838195 -40.56947708 47.77161789 C-40.59395028 43.82317695 -40.57940729 39.87541256 -40.56126404 35.92692566 C-40.57446401 34.78576253 -40.58766397 33.64459939 -40.60126394 32.46885556 C-40.50397037 23.18545984 -37.91089561 16.27402828 -31.5715332 9.43139648 C-22.06436945 0.68562896 -12.40843093 0.006272 0 0 Z " fill="#0359BB" transform="translate(223.946533203125,202.693603515625)"/>
<path d="M0 0 C0.95881577 -0.01004562 1.91763153 -0.02009125 2.90550232 -0.03044128 C3.96107834 -0.03627228 5.01665436 -0.04210327 6.10421753 -0.04811096 C7.21331985 -0.05789474 8.32242218 -0.06767853 9.46513367 -0.07775879 C13.14934073 -0.10776376 16.83351131 -0.12911432 20.51779175 -0.14796448 C21.77471706 -0.1545363 23.03164238 -0.16110813 24.32665634 -0.1678791 C29.6109782 -0.19377878 34.89529466 -0.21726683 40.17965889 -0.23237514 C47.74346464 -0.25425557 55.30655811 -0.29616284 62.87007916 -0.36581272 C68.83516148 -0.4188687 74.80008752 -0.43887046 80.76540756 -0.44757271 C83.29874058 -0.45613369 85.83206071 -0.4749673 88.36523819 -0.50431633 C91.91551201 -0.54322889 95.4639373 -0.54426436 99.01437378 -0.53639221 C100.05780441 -0.55639282 101.10123505 -0.57639343 102.17628479 -0.59700012 C108.33014552 -0.53586643 112.00676021 0.47350448 116.80645561 4.38435268 C121.31714519 9.26681271 121.88413079 13.40039888 121.84188843 19.89048767 C121.84797953 20.76919572 121.85407063 21.64790378 121.86034632 22.55323935 C121.87699423 25.49737052 121.87219795 28.44107005 121.86740112 31.38523865 C121.87474032 33.49606781 121.8833261 35.60689295 121.89306641 37.7177124 C121.91530455 43.45107574 121.918212 49.18429545 121.91631889 54.917696 C121.91619932 59.7017455 121.92475785 64.48576442 121.93309641 69.26980543 C121.95233802 80.55358381 121.9552112 91.8372882 121.94845581 103.12107849 C121.94181104 114.76881362 121.96469538 126.41623238 122.00176954 138.06390333 C122.03243374 148.05977187 122.04383023 158.05553846 122.03993273 168.05145311 C122.03786219 174.02362627 122.04339188 179.99555318 122.06782532 185.96768188 C122.09003613 191.58204165 122.08826162 197.19588561 122.0678978 202.81024742 C122.06447795 204.87222885 122.06961855 206.93424464 122.08388138 208.99617958 C122.10199344 211.8083165 122.08938501 214.61868844 122.06893921 217.43077087 C122.08145706 218.24934995 122.09397491 219.06792903 122.10687208 219.91131353 C122.04104819 224.12549311 121.7924308 225.7155603 119.12056732 229.1628952 C116.44747925 231.16062927 116.44747925 231.16062927 113.05661011 231.85423279 C108.12110897 230.90572716 106.05857298 228.65017314 102.7013855 225.06297302 C102.08657822 224.43588943 101.47177094 223.80880585 100.83833313 223.16271973 C98.87836422 221.15708375 96.94385643 219.1289052 95.00997925 217.09812927 C93.0791712 215.1021646 91.1433724 213.11114817 89.20672607 211.12084961 C87.95797379 209.83720766 86.71115003 208.55168665 85.46630859 207.26425171 C81.8916821 203.58122656 78.24295352 200.09499128 74.31442261 196.78733826 C70.32637346 193.31246295 66.66612122 189.48113797 62.94747925 185.72312927 C62.12505737 184.89619568 61.3026355 184.06926208 60.45529175 183.2172699 C58.45035812 181.20067968 56.44781672 179.18177691 54.44747925 177.16062927 C50.78312974 178.87088393 48.51292035 180.92060851 45.69747925 183.84812927 C42.85791076 186.79303659 39.97957081 189.58997065 36.86935425 192.24266052 C31.09736761 197.23848473 25.80680423 202.73183156 20.44747925 208.16062927 C8.11224515 220.65576455 8.11224515 220.65576455 1.97091675 225.81321716 C0.2688635 227.24672908 0.2688635 227.24672908 -1.55252075 229.59812927 C-4.22559066 231.68646514 -6.23728203 231.67945924 -9.55252075 231.78953552 C-12.77750003 230.77543071 -13.76136423 228.98429737 -15.55252075 226.16062927 C-15.93820734 223.12931005 -16.09348699 220.46527554 -16.06045532 217.4375 C-16.06669528 216.55949751 -16.07293525 215.68149503 -16.0793643 214.7768864 C-16.09531859 211.83494742 -16.08268041 208.89383417 -16.07009888 205.95188904 C-16.07551894 203.84268205 -16.08264095 201.73347885 -16.09133911 199.62428284 C-16.1095901 193.8949257 -16.10249718 188.16585635 -16.08982277 182.43649411 C-16.07970304 176.44283342 -16.08908572 170.44919754 -16.09536743 164.45553589 C-16.10264738 154.38868278 -16.09304755 144.321947 -16.07400513 134.25511169 C-16.05224172 122.61538013 -16.05928264 110.97592887 -16.08131075 99.33620411 C-16.09946184 89.34540964 -16.10202429 79.35469956 -16.09155607 69.36389393 C-16.08531882 63.39565145 -16.08449188 57.42754073 -16.09770203 51.45930672 C-16.10925534 45.84744394 -16.10124389 40.23594253 -16.078125 34.6241188 C-16.07283494 32.56418012 -16.07435674 30.50421104 -16.08317566 28.44428444 C-16.09410293 25.63269286 -16.08040134 22.8222599 -16.06045532 20.01074219 C-16.06937821 19.19507595 -16.0783011 18.37940971 -16.08749437 17.53902632 C-16.01522221 12.28858208 -14.99467095 9.34386608 -11.55252075 5.16062927 C-7.57630126 1.65776925 -5.26510557 0.04328368 0 0 Z " fill="#0359BB" transform="translate(480.5525207519531,319.83937072753906)"/>
<path d="M0 0 C3.98722435 2.08249934 6.09118174 4.22477611 7.90234375 8.2734375 C8.34236568 11.61371023 8.32242635 14.92742116 8.30639648 18.29272461 C8.31325974 19.29818832 8.32012299 20.30365204 8.32719421 21.33958435 C8.34548137 24.66012735 8.34162185 27.98019874 8.3359375 31.30078125 C8.34049837 33.61096857 8.34580366 35.92115452 8.3518219 38.2313385 C8.36075679 43.07249464 8.35832546 47.91348584 8.34838867 52.75463867 C8.3368988 58.95662766 8.3571094 65.15804732 8.38630581 71.35996151 C8.40465729 76.13065707 8.4043774 80.90121594 8.39866829 85.67193794 C8.39851495 87.95846925 8.40456997 90.24500975 8.41695976 92.53150749 C8.43184748 95.72961963 8.42120811 98.9266766 8.40405273 102.12475586 C8.4137207 103.06780579 8.42338867 104.01085571 8.43334961 104.98248291 C8.35662248 111.81787588 6.89361772 115.06058768 2.21484375 120.0859375 C-1.43914233 121.96230873 -5.00320263 122.50842353 -9.09765625 122.2734375 C-13.54597508 120.09124336 -16.31609417 117.335951 -19.09765625 113.2734375 C-19.61663818 110.43229675 -19.61663818 110.43229675 -19.64355469 107.28979492 C-19.66327332 106.10894821 -19.68299194 104.9281015 -19.70330811 103.71147156 C-19.70453674 102.44672501 -19.70576538 101.18197845 -19.70703125 99.87890625 C-19.7235675 98.57641434 -19.74010376 97.27392242 -19.75714111 95.93196106 C-19.80072975 92.48128367 -19.82079437 89.03086008 -19.83587646 85.57995605 C-19.85547862 82.05380295 -19.89744494 78.52792271 -19.9375 75.00195312 C-20.01270943 68.092551 -20.06305675 61.18315909 -20.09765625 54.2734375 C-20.76804932 55.29824219 -21.43844238 56.32304687 -22.12915039 57.37890625 C-23.02599706 58.73972002 -23.92306272 60.10038948 -24.8203125 61.4609375 C-25.26008423 62.13447266 -25.69985596 62.80800781 -26.1529541 63.50195312 C-32.70305532 73.40713155 -41.56313776 82.428598 -53.09765625 86.2734375 C-61.15752164 87.19834009 -66.56737288 86.02141231 -73.09765625 81.2734375 C-74.87753385 79.73330867 -76.63619509 78.16838511 -78.375 76.58203125 C-79.70712524 75.37051392 -79.70712524 75.37051392 -81.06616211 74.13452148 C-81.73655518 73.52036377 -82.40694824 72.90620605 -83.09765625 72.2734375 C-83.10700195 73.45373535 -83.11634766 74.6340332 -83.12597656 75.85009766 C-83.16596273 80.24500748 -83.2317454 84.63922363 -83.30517578 89.03369141 C-83.33333545 90.93268904 -83.35457483 92.8318028 -83.36865234 94.73095703 C-83.39015143 97.46707388 -83.43683633 100.20180202 -83.48828125 102.9375 C-83.49012421 104.20347519 -83.49012421 104.20347519 -83.49200439 105.49502563 C-83.62484813 110.88713807 -84.55086901 113.97538075 -88.09765625 118.2734375 C-92.07218515 121.88664559 -96.36161748 121.77705693 -101.50390625 121.625 C-105.08866382 121.13911418 -106.74524771 119.99340988 -109.09765625 117.2734375 C-111.91846873 113.32662467 -112.47878443 110.59945652 -112.50170898 105.77416992 C-112.51439316 104.47899948 -112.52707733 103.18382904 -112.54014587 101.84941101 C-112.5380938 100.44257446 -112.53510524 99.03573901 -112.53125 97.62890625 C-112.53581528 96.17547869 -112.54112189 94.72205328 -112.5471344 93.26863098 C-112.5560576 90.22481511 -112.55365311 87.18126169 -112.54370117 84.13745117 C-112.53223529 80.253764 -112.5523892 76.37098932 -112.58161831 72.48742199 C-112.60004927 69.48548202 -112.59967387 66.4837577 -112.59398079 63.48177528 C-112.59382829 62.05096472 -112.59981314 60.62013887 -112.61227226 59.18938255 C-112.73260819 43.10014214 -112.73260819 43.10014214 -106.65037537 36.76628113 C-102.51773926 33.12569996 -98.86598387 30.98531898 -93.34765625 30.8359375 C-92.5484375 30.79597656 -91.74921875 30.75601562 -90.92578125 30.71484375 C-83.19980277 32.24083121 -77.6702496 38.30207367 -72.41015625 43.7734375 C-71.77271484 44.42441406 -71.13527344 45.07539063 -70.47851562 45.74609375 C-67.75215012 48.53154457 -65.04740852 51.32738312 -62.390625 54.1796875 C-60.16995617 56.20741918 -59.04038033 56.94646816 -56.09765625 57.2734375 C-51.31786084 51.07355795 -46.71378158 44.81289612 -42.41015625 38.2734375 C-38.31897989 32.05884722 -34.11406244 25.93160681 -29.84765625 19.8359375 C-29.26927002 19.00771484 -28.69088379 18.17949219 -28.0949707 17.32617188 C-12.8236797 -4.44172146 -12.8236797 -4.44172146 0 0 Z " fill="#055ABB" transform="translate(427.09765625,379.7265625)"/>
<path d="M0 0 C0.90807404 -0.0071553 1.81614807 -0.01431061 2.7517395 -0.02168274 C5.74256251 -0.03854134 8.73188059 -0.01918358 11.72265625 0.00219727 C13.80721155 0.00136831 15.89176677 -0.00109209 17.97631836 -0.00511169 C22.34085818 -0.00796776 26.70488428 0.00671323 31.06933594 0.03417969 C36.65818436 0.06826175 42.24611433 0.06224223 47.83500671 0.04351711 C52.13822049 0.03293836 56.4412213 0.04189298 60.74441528 0.05690193 C62.804854 0.06207775 64.865315 0.06160924 66.92575073 0.05535698 C69.8077562 0.04989431 72.6884559 0.07031394 75.5703125 0.09765625 C76.418284 0.09113037 77.26625549 0.08460449 78.1399231 0.07788086 C83.49085983 0.16401257 86.53510523 1.09157072 90.78515625 4.63110352 C93.55138848 7.90690484 94.68917459 9.86325021 95.22265625 14.13110352 C94.49972522 19.91455175 92.22962551 23.88108258 87.78515625 27.63110352 C84.38320057 28.76508874 81.69157754 28.78995762 78.10546875 28.84204102 C76.7708211 28.87011121 75.43618585 28.89877569 74.1015625 28.92797852 C72.00602591 28.96919253 69.91072029 29.00609642 67.81494141 29.0324707 C65.78630341 29.06018825 63.75870276 29.10605346 61.73046875 29.15454102 C60.51891113 29.17436035 59.30735352 29.19417969 58.05908203 29.21459961 C54.48125507 29.66976537 52.60961945 30.41345613 49.78515625 32.63110352 C47.23595708 36.30616801 47.49913254 40.21508063 47.51391602 44.51733398 C47.5060759 45.70344269 47.5060759 45.70344269 47.49807739 46.91351318 C47.48784867 48.62788792 47.48205895 50.34229361 47.480196 52.05669785 C47.47652994 54.77241224 47.4597965 57.48776225 47.43943787 60.20339966 C47.38405038 67.92353535 47.353354 75.64372472 47.32885742 83.36401367 C47.31296192 88.08902987 47.28272161 92.8137875 47.24409294 97.53866959 C47.23246006 99.3367246 47.22651274 101.1348259 47.22641182 102.93291855 C47.22621926 105.45091412 47.20791581 107.96819907 47.18579102 110.48608398 C47.19036819 111.22498871 47.19494537 111.96389343 47.19966125 112.72518921 C47.12353781 118.18859567 45.78239393 122.08916465 42.41015625 126.38110352 C38.18458752 129.631541 34.01880653 130.26275096 28.78515625 129.63110352 C24.07077781 127.28361466 21.07625653 124.39590897 18.78515625 119.63110352 C18.36325442 116.65452008 18.40570855 113.71183374 18.44458008 110.70996094 C18.444142 109.82165588 18.44370392 108.93335083 18.44325256 108.01812744 C18.4453376 105.09071649 18.46865534 102.16388281 18.4921875 99.23657227 C18.49778446 97.20347913 18.50205409 95.17038195 18.50505066 93.13728333 C18.5164915 87.79262066 18.54595229 82.44820352 18.5791626 77.1036377 C18.60987979 71.64733196 18.62355953 66.19098646 18.63867188 60.73461914 C18.67082258 50.03333954 18.72200988 39.33224196 18.78515625 28.63110352 C17.97361084 28.66252441 17.16206543 28.69394531 16.32592773 28.72631836 C12.62512432 28.85155437 8.92476737 28.92924308 5.22265625 29.00610352 C3.30743164 29.08151367 3.30743164 29.08151367 1.35351562 29.15844727 C-9.28315257 29.32421352 -9.28315257 29.32421352 -13.52734375 25.76000977 C-17.0073769 22.12437898 -18.07953292 19.14658484 -18.52734375 14.13110352 C-18.0626935 8.92702068 -16.26457793 6.7088169 -12.67358398 3.02210999 C-8.70102166 -0.20792243 -4.95381377 -0.06830534 0 0 Z " fill="#065ABB" transform="translate(245.21484375,372.368896484375)"/>
<path d="M0 0 C4.35663722 2.23921784 6.90211982 4.93687797 9.00390625 9.30859375 C9.94263961 14.64230601 9.00567456 18.75418666 6.00390625 23.30859375 C0.91155939 27.90412628 -2.40035571 28.77588303 -9.16015625 28.72265625 C-13.70678923 28.05882278 -16.19120273 25.82730434 -18.99609375 22.30859375 C-21.40390669 18.33046802 -21.84291348 13.86241007 -20.99609375 9.30859375 C-16.86835335 0.72903415 -9.23738885 -3.1996435 0 0 Z " fill="#F1F4F7" transform="translate(245.99609375,239.69140625)"/>
<path d="M0 0 C4.34120008 2.20770431 6.93753472 4.85225972 9.078125 9.3046875 C10.01685836 14.63839976 9.07989331 18.75028041 6.078125 23.3046875 C1.15339185 27.74895888 -1.87582183 28.66641586 -8.3828125 28.58203125 C-13.47647852 28.02564619 -16.07435919 25.28602159 -19.296875 21.5546875 C-21.24579049 17.65685653 -21.71601773 14.5373864 -20.921875 10.3046875 C-19.23983909 5.39792002 -16.49229814 2.25931943 -11.84375 -0.03515625 C-7.74658739 -1.44251495 -4.08163318 -1.47668843 0 0 Z " fill="#F2F5F7" transform="translate(288.921875,239.6953125)"/>
<path d="M0 0 C0.66 0.33 1.32 0.66 2 1 C-0.31 3.31 -2.62 5.62 -5 8 C-5.33 7.34 -5.66 6.68 -6 6 C-4 4 -2 2 0 0 Z " fill="#CFE0F1" transform="translate(276,240)"/>
</svg>